<?xml version="1.0" encoding="utf-8"?>
<!-- Generator: Adobe Illustrator 26.0.2, SVG Export Plug-In . SVG Version: 6.00 Build 0)  -->
<svg version="1.1" id="Layer_1" xmlns="http://www.w3.org/2000/svg" xmlns:xlink="http://www.w3.org/1999/xlink" x="0px" y="0px"
	 viewBox="0 0 800 800" style="enable-background:new 0 0 800 800;" xml:space="preserve">
<style type="text/css">
	.st0{fill:#F4E083;}
	.st1{fill:#033E57;stroke:#231F20;stroke-miterlimit:10;}
</style>
<path class="st0" d="M400,798.54L400,798.54C179.89,798.54,1.46,620.11,1.46,400v0C1.46,179.89,179.89,1.46,400,1.46h0
	c220.11,0,398.54,178.43,398.54,398.54v0C798.54,620.11,620.11,798.54,400,798.54z"/>
<g>
	<path class="st1" d="M127.37,518.18c-21.54,0-36.74-15.07-36.74-34.32c0-19.25,15.2-34.32,36.74-34.32
		c20.69,0,35.89,15.07,35.89,34.32C163.26,503.11,148.06,518.18,127.37,518.18z"/>
	<path class="st1" d="M376.4,388.53c0-37.25-20.53-57.34-51.54-57.34c-31.85,0-52.38,20.09-52.38,57.34v128.08h-61.4V285.17h56.68
		v28.83c15.34-19.63,40.9-32.17,71.15-32.17c54.96,0,94.16,35.09,94.16,99.01v135.77H376.4V388.53z"/>
	<path class="st1" d="M528.56,285.17l59,177.55l59-177.55h62.8l-86.4,231.44h-71.65l-85.98-231.44H528.56z"/>
</g>
</svg>
